#!OML:ASF \\sashay\E\basketball\basketball\Project 1\Capture day 1\Session 1\Subject.ASF
:FULLY-SPECIFIED
:DEGREES
116
root -18.4571 13.5843 8.79095 407.538 68.0348 350.074
lowerback -12.2521 3.72003 0.50495
upperback 0.672399 4.84946 0.997362
thorax 7.53709 2.37724 1.6717
lowerneck -5.34132 -2.06807 -10.9749
upperneck -24.4868 0.547997 13.1957
head -6.46553 0.736178 6.20853
rclavicle -2.3059e-014 6.99722e-014
rhumerus 1.7831 -17.2172 -78.6352
rradius 58.7852
rwrist -27.3176
rhand -23.7607 38.3494
rfingers 7.12502
rthumb 2.70846 8.38681
lclavicle -2.3059e-014 6.99722e-014
lhumerus -60.3446 -6.64678 85.4753
lradius 25.1311
lwrist 12.3452
lhand -16.5551 35.0368
lfingers 7.12502
lthumb 9.66464 64.795
rfemur -57.9305 -25.0735 23.2
rtibia 55.1397
rfoot -26.6936 -5.84493
rtoes -48.2494
lfemur -113.567 0.662793 -54.2885
ltibia 91.4238
lfoot -4.34936 -2.79945
ltoes -20.1285
117
root -18.0279 13.6637 8.97786 406.796 68.6524 349.435
lowerback -12.2579 2.9078 -1.63387
upperback 0.572659 4.02248 1.84784
thorax 7.23779 1.88326 3.61076
lowerneck -5.83882 -1.00314 -11.2158
upperneck -22.6228 1.62962 11.8447
head -5.95002 1.35019 5.69661
rclavicle 7.07673e-014 -5.04913e-014
rhumerus -1.24032 -17.1911 -78.2817
rradius 62.2189
rwrist -29.8455
rhand -24.7245 39.5991
rfingers 7.12502
rthumb 1.77765 9.62678
lclavicle 7.07673e-014 -5.04913e-014
lhumerus -61.872 -3.91397 85.394
lradius 24.6222
lwrist 11.5606
lhand -16.0586 34.6379
lfingers 7.12502
lthumb 10.1437 64.3734
rfemur -53.3719 -23.6774 21.7519
rtibia 51.5268
rfoot -24.2718 -5.12769
rtoes -49.0197
lfemur -113.14 0.264296 -55.8457
ltibia 86.7472
lfoot -4.13049 -4.98714
ltoes -18.4444
118
root -17.5894 13.7347 9.16278 406.089 69.2169 348.998
lowerback -12.0811 2.34846 -2.59197
upperback 0.456388 3.4221 1.59504
thorax 7.0149 1.56306 3.7608
lowerneck -5.3568 -0.629909 -10.6692
upperneck -22.8801 2.28431 12.5628
head -6.18201 1.57526 5.83125
rclavicle 7.15625e-015 4.37326e-014
rhumerus -4.60698 -19.141 -79.3733
rradius 64.9953
rwrist -28.4835
rhand -24.4758 38.4536
rfingers 7.12502
rthumb 2.01783 8.48342
lclavicle 7.15625e-015 4.37326e-014
lhumerus -63.0853 -2.59425 84.2759
lradius 24.2319
lwrist 11.5565
lhand -15.8912 34.416
lfingers 7.12502
lthumb 10.3051 64.1435
rfemur -48.7333 -22.0755 20.1993
rtibia 47.8479
rfoot -21.4592 -4.30775
rtoes -50.0749
lfemur -112.234 -0.0219141 -57.5926
ltibia 81.9948
lfoot -4.00193 -7.0217
ltoes -15.6102
119
root -17.1503 13.8063 9.34035 404.503 69.8912 348.057
lowerback -11.6984 1.77487 -3.64733
upperback 0.65375 2.7805 1.72335
thorax 7.00575 1.20196 4.37146
lowerneck -5.4689 -0.20209 -10.3898
upperneck -22.5235 2.88451 12.6373
head -6.12202 1.84581 5.77661
rclavicle 3.26007e-014 4.1546e-014
rhumerus -7.6575 -20.517 -79.9751
rradius 67.7782
rwrist -28.3603
rhand -25.2283 36.9068
rfingers 7.12502
rthumb 1.29108 6.93091
lclavicle 3.26007e-014 4.1546e-014
lhumerus -63.3515 -0.442719 83.0997
lradius 23.2858
lwrist 11.0164
lhand -15.9967 34.1648
lfingers 7.12502
lthumb 10.2033 63.8973
rfemur -43.69 -20.1005 18.8008
rtibia 44.0465
rfoot -17.9963 -3.53698
rtoes -51.2533
lfemur -110.903 0.00540404 -59.2483
ltibia 77.2952
lfoot -3.84717 -8.78772
ltoes -15.3909
120
root -16.7152 13.8786 9.50593 401.382 70.6736 346.175
lowerback -10.6439 1.44885 -3.66413
upperback 1.07387 2.32675 1.39027
thorax 6.91291 0.976523 3.91641
lowerneck -6.01465 0.143619 -9.60893
upperneck -21.3642 3.32914 12.8527
head -5.70644 2.00365 5.66896
rclavicle 4.11484e-014 9.59136e-015
rhumerus -10.5065 -22.6676 -81.225
rradius 69.8179
rwrist -27.4935
rhand -24.8673 35.2835
rfingers 7.12502
rthumb 1.63971 5.31006
lclavicle 4.11484e-014 9.59136e-015
lhumerus -63.0979 0.999112 81.33
lradius 22.4332
lwrist 10.8367
lhand -15.8823 34.1896
lfingers 7.12502
lthumb 10.3137 63.9167
rfemur -38.1268 -17.7225 17.677
rtibia 40.2957
rfoot -13.6482 -2.77529
rtoes -52.2501
lfemur -109.077 0.549391 -60.498
ltibia 72.8539
lfoot -2.05356 -9.2223
ltoes -2.11944
121
root -16.2765 13.9496 9.66785 397.352 71.5237 343.559
lowerback -9.2929 1.25511 -3.39432
upperback 1.49143 2.00885 1.03615
thorax 6.63695 0.836318 3.29876
lowerneck -3.62678 -0.695042 -8.56881
upperneck -23.1843 2.24942 13.5043
head -6.54827 1.24751 5.78957
rclavicle -3.79679e-014 -3.63776e-014
rhumerus -13.3192 -24.5392 -82.3215
rradius 72.0277
rwrist -31.8002
rhand -23.3499 34.1796
rfingers 7.12502
rthumb 3.10518 4.22243
lclavicle -3.79679e-014 -3.63776e-014
lhumerus -62.6144 1.97737 79.7632
lradius 21.683
lwrist 10.7981
lhand -15.7766 34.4252
lfingers 7.12502
lthumb 10.4156 64.1472
rfemur -32.7068 -15.0993 17.0277
rtibia 36.7731
rfoot -8.5333 -2.16886
rtoes -52.9064
lfemur -106.952 1.34176 -61.1675
ltibia 68.7503
lfoot -3.82282 -11.158
ltoes -18.585
122
root -15.8354 14.012 9.82462 393.152 72.2291 340.681
lowerback -8.00642 0.817515 -3.61899
upperback 1.7015 1.39172 1.25549
thorax 6.16486 0.528509 3.53674
lowerneck -5.22626 -0.49861 -10.0437
upperneck -19.8676 2.55227 15.5422
head -5.25926 1.44753 6.63974
rclavicle 3.26007e-014 -3.20043e-014
rhumerus -16.2846 -25.1432 -82.3939
rradius 73.786
rwrist -35.9261
rhand -21.3733 32.7676
rfingers 7.12502
rthumb 5.01389 2.84695
lclavicle 3.26007e-014 -3.20043e-014
lhumerus -62.4597 4.33702 78.333
lradius 20.7342
lwrist 10.0636
lhand -16.0103 34.4588
lfingers 7.12502
lthumb 10.1903 64.192
rfemur -27.9948 -12.4036 16.752
rtibia 33.806
rfoot -3.58829 -1.78722
rtoes -53.3719
lfemur -104.724 2.17897 -61.4405
ltibia 65.0666
lfoot -2.55328 -11.5954
ltoes -14.9063
123
root -15.3898 14.0672 9.97615 388.841 72.7303 337.569
lowerback -7.02711 0.572206 -3.50697
upperback 2.07454 1.02925 1.13708
thorax 6.03461 0.35363 3.28688
lowerneck -6.36923 -0.0457522 -9.98846
upperneck -18.2661 3.16286 16.0381
head -4.65672 1.78836 6.74437
rclavicle -5.1684e-015 2.78299e-015
rhumerus -19.0552 -25.9707 -82.7024
rradius 75.5664
rwrist -40.1959
rhand -19.9433 31.749
rfingers 7.12502
rthumb 6.39456 1.86557
lclavicle -5.1684e-015 2.78299e-015
lhumerus -61.6487 6.35835 76.4653
lradius 19.8401
lwrist 9.41634
lhand -16.2515 34.5623
lfingers 7.12502
lthumb 9.95753 64.3068
rfemur -24.117 -9.48348 16.6981
rtibia 31.7936
rfoot 0.403361 -1.84323
rtoes -52.9229
lfemur -102.583 3.1106 -61.5091
ltibia 61.9199
lfoot -1.77648 -11.6915
ltoes -11.5359
124
root -14.9414 14.1132 10.1165 384.996 72.8548 334.934
lowerback -6.31548 0.35605 -3.57504
upperback 2.63192 0.741309 0.954427
thorax 6.24179 0.200784 3.09442
lowerneck -6.70443 0.254975 -9.72094
upperneck -18.0375 3.6549 16.4051
head -4.59605 2.02729 6.80703
rclavicle -3.81667e-014 -4.81059e-014
rhumerus -21.3817 -26.269 -83.0245
rradius 77.1318
rwrist -43.6407
rhand -19.5709 30.3891
rfingers 7.12502
rthumb 6.75402 0.516834
lclavicle -3.81667e-014 -4.81059e-014
lhumerus -60.4695 8.87179 74.4246
lradius 19.0654
lwrist 8.68614
lhand -16.6231 35.0702
lfingers 7.12502
lthumb 9.59901 64.8315
rfemur -21.031 -6.50271 16.5597
rtibia 31.0468
rfoot 3.58426 -2.07154
rtoes -50.8549
lfemur -100.524 4.23583 -61.6116
ltibia 59.4209
lfoot -1.54107 -11.6383
ltoes -10.9927
125
root -14.5051 14.1243 10.2486 381.025 72.9333 332.248
lowerback -5.82031 0.166551 -3.07092
upperback 3.38265 0.474926 0.452776
thorax 6.77939 0.0856856 2.25452
lowerneck -6.55107 0.353079 -9.15242
upperneck -18.5869 3.99767 17.1121
head -4.83016 2.13292 6.9499
rclavicle 1.98785e-014 -8.18993e-014
rhumerus -23.1816 -26.5639 -83.9595
rradius 78.3964
rwrist -45.9197
rhand -20.1794 28.7807
rfingers 7.12502
rthumb 6.16661 -1.10951
lclavicle 1.98785e-014 -8.18993e-014
lhumerus -58.9108 11.0229 72.4308
lradius 18.4908
lwrist 8.40954
lhand -17.1002 35.6982
lfingers 7.12502
lthumb 9.13868 65.4802
rfemur -18.5533 -4.01212 16.749
rtibia 31.5642
rfoot 6.20269 -2.28772
rtoes -46.8164
lfemur -98.4817 5.32731 -61.3445
ltibia 57.9291
lfoot -1.44938 -10.4833
ltoes -0.711881
126
root -14.0678 14.1222 10.3849 378.554 73.0934 330.037
lowerback -5.58471 -0.130563 -3.32342
upperback 3.33132 0.0884053 0.499547
thorax 6.61416 -0.11308 2.39985
lowerneck -6.94569 0.812152 -9.49645
upperneck -17.8695 4.60687 17.2849
head -4.63928 2.48201 7.04315
rclavicle -2.46493e-014 -1.11319e-014
rhumerus -25.6741 -26.1866 -83.6275
rradius 79.5443
rwrist -48.2748
rhand -20.7251 27.5019
rfingers 7.12502
rthumb 5.63979 -2.40302
lclavicle -2.46493e-014 -1.11319e-014
lhumerus -58.143 13.738 70.7168
lradius 17.8149
lwrist 7.47621
lhand -17.5165 35.824
lfingers 7.12502
lthumb 8.73698 65.6232
rfemur -17.9453 -2.46819 17.2585
rtibia 33.3033
rfoot 5.81164 -1.84823
rtoes -46.3647
lfemur -97.1844 5.67248 -61.358
ltibia 57.6093
lfoot -1.41181 -8.16377
ltoes 25.3444
127
root -13.6337 14.1128 10.5122 375.065 73.2336 327.266
lowerback -5.14639 -0.210964 -3.08098
upperback 3.55794 -0.0376352 0.353951
thorax 6.60846 -0.161317 2.09644
lowerneck -7.37684 0.909388 -9.07174
upperneck -17.4382 4.71444 17.354
head -4.44454 2.53957 6.9829
rclavicle 3.65764e-014 -5.56597e-015
rhumerus -28.0716 -26.3407 -83.4537
rradius 80.7145
rwrist -51.068
rhand -20.5639 26.3296
rfingers 7.12502
rthumb 5.79536 -3.57117
lclavicle 3.65764e-014 -5.56597e-015
lhumerus -56.7873 16.0844 68.9045
lradius 17.0029
lwrist 6.24952
lhand -17.9299 35.8547
lfingers 7.12502
lthumb 8.33798 65.6702
rfemur -17.33 -1.914 18.1075
rtibia 35.9682
rfoot 5.3747 -0.520292
rtoes -44.6433
lfemur -95.6102 6.19034 -60.6762
ltibia 58.5182
lfoot -4.40085 -3.27591
ltoes 17.9978
128
root -13.213 14.0934 10.6396 372.265 73.3089 324.801
lowerback -4.73064 -0.926902 -3.55884
upperback 3.14548 -1.01401 0.926054
thorax 6.01456 -0.662885 2.86433
lowerneck -6.33968 1.79084 -10.5593
upperneck -17.0594 5.93037 17.9328
head -4.72669 3.1495 7.39238
rclavicle 3.65764e-014 -3.02153e-014
rhumerus -31.1287 -23.9429 -82.5064
rradius 81.8736
rwrist -54.8578
rhand -19.9764 25.0979
rfingers 7.12502
rthumb 6.36262 -4.78659
lclavicle 3.65764e-014 -3.02153e-014
lhumerus -57.4435 19.9383 67.2114
lradius 16.7
lwrist 5.13067
lhand -18.5044 36.0088
lfingers 7.12502
lthumb 7.7835 65.8455
rfemur -17.4909 -1.82537 18.8673
rtibia 39.3672
rfoot 4.63876 0.587514
rtoes -39.7224
lfemur -94.0518 6.33758 -58.6996
ltibia 60.4464
lfoot -8.56402 2.36425
ltoes 7.41063
